<?xml version="1.0" standalone="no"?>
<!DOCTYPE svg PUBLIC "-//W3C//DTD SVG 20010904//EN"
 "http://www.w3.org/TR/2001/REC-SVG-20010904/DTD/svg10.dtd">
<svg version="1.0" xmlns="http://www.w3.org/2000/svg"
 width="128.000000pt" height="128.000000pt" viewBox="0 0 128.000000 128.000000"
 preserveAspectRatio="xMidYMid meet">

<g transform="translate(0.000000,128.000000) scale(0.100000,-0.100000)"
fill="#000000" stroke="none">
<path d="M20 920 l0 -340 120 0 120 0 0 -60 c0 -84 17 -100 110 -100 63 0 79
-4 160 -45 l90 -45 0 45 0 45 40 0 c60 0 80 25 80 100 l0 60 40 0 40 0 0 340
0 340 -400 0 -400 0 0 -340z m760 240 l0 -60 -360 0 -360 0 0 60 0 60 360 0
360 0 0 -60z m0 -320 c0 -213 -1 -220 -20 -220 -13 0 -20 7 -20 20 0 11 -9 29
-20 40 -18 18 -20 33 -20 180 l0 160 -60 0 -60 0 0 -160 c0 -153 -1 -160 -20
-160 -18 0 -20 7 -20 80 l0 80 -60 0 -60 0 0 -80 c0 -73 -2 -80 -20 -80 -19 0
-20 7 -20 120 l0 120 -60 0 -60 0 0 -160 0 -160 -100 0 -100 0 0 220 0 220
360 0 360 0 0 -220z m-125 -1 c0 -112 -2 -134 -15 -134 -12 0 -15 22 -18 124
-3 132 0 155 21 148 9 -3 12 -39 12 -138z m-320 -40 c0 -81 -2 -94 -17 -97
-16 -3 -18 6 -18 91 0 51 3 97 7 101 20 20 28 -7 28 -95z m160 -40 c0 -41 -4
-54 -15 -54 -16 0 -27 73 -16 102 13 33 31 5 31 -48z m200 -199 l0 -95 -57 -3
c-57 -3 -58 -4 -58 -32 0 -17 -2 -30 -5 -30 -3 0 -29 12 -58 27 -40 21 -71 29
-132 33 l-80 5 -3 84 c-2 46 -1 90 2 98 5 11 43 13 198 11 l193 -3 0 -95z"/>
<path d="M100 1160 c0 -13 7 -20 20 -20 13 0 20 7 20 20 0 13 -7 20 -20 20
-13 0 -20 -7 -20 -20z"/>
<path d="M180 1160 c0 -13 7 -20 20 -20 13 0 20 7 20 20 0 13 -7 20 -20 20
-13 0 -20 -7 -20 -20z"/>
<path d="M260 1160 c0 -13 7 -20 20 -20 13 0 20 7 20 20 0 13 -7 20 -20 20
-13 0 -20 -7 -20 -20z"/>
<path d="M100 740 l0 -80 60 0 60 0 0 80 0 80 -60 0 -60 0 0 -80z m75 -1 c0
-24 -5 -34 -15 -34 -16 0 -25 37 -16 62 10 26 31 8 31 -28z"/>
<path d="M340 600 c0 -19 7 -20 160 -20 153 0 160 1 160 20 0 19 -7 20 -160
20 -153 0 -160 -1 -160 -20z"/>
<path d="M340 520 c0 -19 7 -20 120 -20 113 0 120 1 120 20 0 19 -7 20 -120
20 -113 0 -120 -1 -120 -20z"/>
<path d="M620 520 c0 -13 7 -20 20 -20 13 0 20 7 20 20 0 13 -7 20 -20 20 -13
0 -20 -7 -20 -20z"/>
<path d="M860 1240 c0 -13 7 -20 20 -20 16 0 20 -7 20 -35 0 -28 5 -38 25 -47
23 -10 23 -12 10 -39 -27 -51 -13 -123 30 -159 14 -11 12 -15 -19 -36 -62 -42
-80 -86 -84 -201 -5 -114 7 -147 53 -159 25 -6 25 -7 25 -125 l0 -119 -307 0
-308 1 -142 -68 c-78 -37 -142 -70 -142 -73 0 -3 64 -36 142 -73 l142 -68 415
1 c396 0 416 1 448 20 87 53 95 167 17 228 -24 19 -25 23 -25 145 0 125 0 125
25 131 46 12 58 45 53 159 -4 115 -22 159 -84 201 -31 21 -33 25 -19 36 43 36
57 108 30 159 -13 27 -13 29 10 39 20 9 25 19 25 47 0 28 4 35 20 35 13 0 20
7 20 20 0 19 -7 20 -200 20 -193 0 -200 -1 -200 -20z m320 -44 c0 -20 -8 -26
-60 -40 -56 -16 -64 -16 -120 0 -52 14 -60 20 -60 40 0 24 0 24 120 24 120 0
120 0 120 -24z m-33 -111 c37 -51 -19 -145 -87 -145 -43 0 -100 56 -100 97 0
55 19 68 100 67 59 -1 76 -5 87 -19z m-57 -194 c0 -5 -7 -14 -15 -21 -12 -10
-18 -10 -30 0 -23 19 -18 30 15 30 17 0 30 -4 30 -9z m-65 -81 c-11 -18 -23
-11 -34 21 -17 49 -13 53 15 20 14 -17 23 -35 19 -41z m105 26 c-12 -36 -23
-45 -35 -26 -6 10 36 71 43 64 2 -1 -1 -19 -8 -38z m-180 -5 c0 -5 9 -30 21
-56 l21 -47 34 33 34 33 34 -33 34 -33 21 47 c12 26 21 51 21 56 0 21 19 6 34
-25 20 -41 23 -195 4 -214 -23 -23 -28 -11 -28 68 0 73 -2 80 -20 80 -17 0
-20 -7 -20 -50 l0 -50 -80 0 -80 0 0 50 c0 43 -3 50 -20 50 -18 0 -20 -7 -20
-80 0 -79 -5 -91 -28 -68 -19 19 -16 173 4 214 15 31 34 46 34 25z m90 -381
l0 -150 -30 0 -30 0 0 150 0 150 30 0 30 0 0 -150z m100 0 l0 -150 -30 0 -30
0 0 150 0 150 30 0 30 0 0 -150z m-240 -230 l0 -40 -280 0 -280 0 0 40 0 40
280 0 280 0 0 -40z m80 -60 c0 -93 -1 -100 -20 -100 -19 0 -20 7 -20 100 0 93
1 100 20 100 19 0 20 -7 20 -100z m207 67 c38 -38 38 -96 0 -134 -23 -23 -37
-28 -97 -31 l-70 -4 0 102 0 102 70 -4 c60 -3 74 -8 97 -31z m-887 -67 c0 -44
-2 -80 -5 -80 -2 0 -20 8 -40 17 -33 16 -35 20 -35 63 0 42 3 48 33 63 17 8
35 16 40 16 4 1 7 -35 7 -79z m-120 -1 c0 -15 -4 -19 -16 -15 -9 3 -20 6 -25
6 -16 0 -10 18 9 23 30 8 32 7 32 -14z m715 -59 l0 -35 -275 0 -275 0 -3 23
c-8 54 -14 53 280 50 l273 -3 0 -35z"/>
</g>
</svg>
